<svg xmlns="http://www.w3.org/2000/svg" width="9" height="9" viewBox="0 0 9 9" fill="none">
<path d="M7.49569 8.88165H1.50431C0.676386 8.88165 0 8.21416 0 7.39712V1.48453C0 0.667492 0.676386 0 1.50431 0H7.49569C8.32361 0 9 0.667492 9 1.48453V7.39712C9 8.21781 8.32731 8.88165 7.49569 8.88165Z" fill="currentColor"/>
<path d="M4.50176 6.72254C3.88443 6.72254 3.30407 6.48542 2.86788 6.05496C2.43168 5.6245 2.19141 5.05177 2.19141 4.44257C2.19141 3.83336 2.43168 3.26063 2.86788 2.83017C3.30407 2.39971 3.88443 2.1626 4.50176 2.1626C5.11908 2.1626 5.69944 2.39971 6.13564 2.83017C6.57183 3.26063 6.81211 3.83336 6.81211 4.44257C6.81211 5.05177 6.57183 5.6245 6.13564 6.05496C5.69574 6.48542 5.11908 6.72254 4.50176 6.72254ZM4.50176 2.64778C3.49999 2.64778 2.68305 3.45032 2.68305 4.44257C2.68305 5.43116 3.49629 6.23736 4.50176 6.23736C5.50352 6.23736 6.32046 5.43481 6.32046 4.44257C6.31677 3.45397 5.50352 2.64778 4.50176 2.64778Z" fill="white"/>
<path d="M7.26241 2.0898C7.50765 2.0898 7.70646 1.8936 7.70646 1.65159C7.70646 1.40957 7.50765 1.21338 7.26241 1.21338C7.01717 1.21338 6.81836 1.40957 6.81836 1.65159C6.81836 1.8936 7.01717 2.0898 7.26241 2.0898Z" fill="white"/>
</svg>