
<svg width="22" height="22" viewBox="0 0 22 22" fill="none" xmlns="http://www.w3.org/2000/svg">
<g clip-path="url(#clip0_794_10451)">
<path d="M8.25004 20.1668C8.7563 20.1668 9.16671 19.7564 9.16671 19.2502C9.16671 18.7439 8.7563 18.3335 8.25004 18.3335C7.74378 18.3335 7.33337 18.7439 7.33337 19.2502C7.33337 19.7564 7.74378 20.1668 8.25004 20.1668Z" stroke="#333333" stroke-width="2" stroke-linecap="round" stroke-linejoin="round"/>
<path d="M18.3333 20.1668C18.8396 20.1668 19.25 19.7564 19.25 19.2502C19.25 18.7439 18.8396 18.3335 18.3333 18.3335C17.827 18.3335 17.4166 18.7439 17.4166 19.2502C17.4166 19.7564 17.827 20.1668 18.3333 20.1668Z" stroke="#333333" stroke-width="2" stroke-linecap="round" stroke-linejoin="round"/>
<path d="M0.916626 0.916504H4.58329L7.03996 13.1907C7.12379 13.6127 7.35338 13.9918 7.68854 14.2616C8.02371 14.5314 8.4431 14.6747 8.8733 14.6665H17.7833C18.2135 14.6747 18.6329 14.5314 18.968 14.2616C19.3032 13.9918 19.5328 13.6127 19.6166 13.1907L21.0833 5.49984H5.49996" stroke="#333333" stroke-width="2" stroke-linecap="round" stroke-linejoin="round"/>
</g>
<defs>
<clipPath id="clip0_794_10451">
<rect width="22" height="22" fill="white"/>
</clipPath>
</defs>
</svg>
